{"title":"Federico Fellini - Le Notti di Cabiria / Nights of Cabiria","uid":9586389,"size":2338316938,"categoryP":"video","categoryS":"movies","magnet":"?xt=urn:btih:15c3dcf7bea4a2808029b800b7c76fd48973bcf7&amp;dn=Federico+Fellini+-+Le+Notti+di+Cabiria+%2F+Nights+of+Cabiria&amp;tr=udp%3A%2F%2Ftracker.openbittorrent.com%3A80&amp;tr=udp%3A%2F%2Fopen.demonii.com%3A1337&amp;tr=udp%3A%2F%2Ftracker.coppersurfer.tk%3A6969&amp;tr=udp%3A%2F%2Fexodus.desync.com%3A6969","seeders":18,"leechers":1,"uploader":"moonflux","files":1,"time":1391827558,"description":"Unique ID : 221145189722058969388918621873990745969 (0xA65F03A8CA68421EA6BBE5039B4F3F71)\nComplete name : Nights.of.Cabiria.1957.NTSC.DVD.x264-Tree.mkv\nFormat : Matroska\nFormat version : Version 2\nFile size : 2.18 GiB\nDuration : 1h 58mn\nOverall bit rate : 2 642 Kbps\nEncoded date : UTC 2009-06-26 02:35:58\nWriting application : mkvmerge v2.9.0 ('Moanin'') built on May 22 2009 17:46:31\nWriting library : libebml v0.7.7 + libmatroska v0.8.1\n\nVideo\nID : 1\nFormat : AVC\nFormat/Info : Advanced Video Codec\nFormat profile : &lt;a class=&quot;__cf_email__&quot; href=&quot;/cdn-cgi/l/email-protection&quot; data-cfemail=&quot;d994b8b0b79995eaf7e8&quot;&gt;[email&amp;#160;protected]&lt;/a&gt;&lt;script cf-hash='f9e31' type=&quot;text/javascript&quot;&gt;\n/* &lt;![CDATA[ */!function(){try{var t=&quot;currentScript&quot;in document?document.currentScript:function(){for(var t=document.getElementsByTagName(&quot;script&quot;),e=t.length;e--;)if(t[e].getAttribute(&quot;cf-hash&quot;))return t[e]}();if(t&amp;&amp;t.previousSibling){var e,r,n,i,c=t.previousSibling,a=c.getAttribute(&quot;data-cfemail&quot;);if(a){for(e=&quot;&quot;,r=parseInt(a.substr(0,2),16),n=2;a.length-n;n+=2)i=parseInt(a.substr(n,2),16)^r,e+=String.fromCharCode(i);e=document.createTextNode(e),c.parentNode.replaceChild(e,c)}}}catch(u){}}();/* ]]&gt; */&lt;/script&gt;\nFormat settings, CABAC : Yes\nFormat settings, ReFrames : 8 frames\nCodec ID : V_MPEG4/ISO/AVC\nDuration : 1h 58mn\nBit rate : 2 448 Kbps\nWidth : 704 pixels\nHeight : 476 pixels\nDisplay aspect ratio : 4:3\nFrame rate : 23.976 fps\nColor space : YUV\nChroma subsampling : 4:2:0\nBit depth : 8 bits\nScan type : Progressive\nBits/(Pixel*Frame) : 0.305\nStream size : 1.98 GiB (91%)\nTitle : Video Track\nWriting library : x264 core 67 r1169M ab85c9b\nEncoding settings : cabac=1 / ref=8 / deblock=1:-2:-2 / analyse=0x1:0x131 / me=tesa / subme=9 / psy_rd=1.2:0.1 / mixed_ref=1 / me_range=32 / chroma_me=1 / trellis=2 / 8x8dct=0 / cqm=0 / deadzone=21,11 / chroma_qp_offset=-3 / threads=6 / nr=0 / decimate=1 / mbaff=0 / bframes=6 / b_pyramid=1 / b_adapt=2 / b_bias=0 / direct=2 / wpredb=1 / keyint=250 / keyint_min=25 / scenecut=40 / rc=2pass / bitrate=2448 / ratetol=1.0 / qcomp=0.60 / qpmin=10 / qpmax=51 / qpstep=4 / cplxblur=20.0 / qblur=0.5 / ip_ratio=1.40 / pb_ratio=1.30 / aq=1:1.00\nLanguage : Italian\n\nAudio\nID : 2\nFormat : AC-3\nFormat/Info : Audio Coding 3\nMode extension : CM (complete main)\nCodec ID : A_AC3\nDuration : 1h 58mn\nBit rate mode : Constant\nBit rate : 192 Kbps\nChannel(s) : 1 channel\nChannel positions : Front: C\nSampling rate : 48.0 KHz\nBit depth : 16 bits\nCompression mode : Lossy\nStream size : 162 MiB (7%)\nTitle : Audio Track\nLanguage : Italian\n\nText\nID : 3\nFormat : UTF-8\nCodec ID : S_TEXT/UTF8\nCodec ID/Info : UTF-8 Plain Text\nTitle : Subtitle Track\nLanguage : English\n","torrent":{"xt":"urn:btih:15c3dcf7bea4a2808029b800b7c76fd48973bcf7","amp;dn":"Federico+Fellini+-+Le+Notti+di+Cabiria+%2F+Nights+of+Cabiria","amp;tr":["udp%3A%2F%2Ftracker.openbittorrent.com%3A80","udp%3A%2F%2Fopen.demonii.com%3A1337","udp%3A%2F%2Ftracker.coppersurfer.tk%3A6969","udp%3A%2F%2Fexodus.desync.com%3A6969"],"infoHash":"15c3dcf7bea4a2808029b800b7c76fd48973bcf7","infoHashBuffer":{"type":"Buffer","data":[21,195,220,247,190,164,162,128,128,41,184,0,183,199,111,212,137,115,188,247]},"announce":[],"urlList":[]}}